<?xml version="1.0" standalone="no"?>
<!DOCTYPE svg PUBLIC "-//W3C//DTD SVG 20010904//EN"
 "http://www.w3.org/TR/2001/REC-SVG-20010904/DTD/svg10.dtd">
<svg version="1.0" xmlns="http://www.w3.org/2000/svg"
 width="2825.000000pt" height="1250.000000pt" viewBox="0 0 2825.000000 1250.000000"
 preserveAspectRatio="xMidYMid meet">

<g transform="translate(0.000000,1250.000000) scale(0.100000,-0.100000)"
fill="#FFFFFF" stroke="none">
<path d="M5982 8758 c-17 -40 -364 -881 -772 -1868 -408 -987 -755 -1828 -772
-1867 l-30 -73 -954 0 -954 0 0 -105 0 -105 910 0 c501 0 910 -1 910 -2 0 -2
-96 -235 -214 -518 -117 -283 -211 -517 -209 -519 2 -3 46 -12 97 -21 l95 -17
222 538 223 539 10608 0 10608 0 0 105 0 105 -10564 2 -10563 3 793 1920 c436
1056 790 1922 786 1926 -9 7 -131 29 -165 29 -22 0 -29 -9 -55 -72z"/>
<path d="M11349 7926 c-76 -21 -150 -67 -219 -136 -51 -51 -1066 -1325 -1404
-1762 -75 -98 -109 -165 -109 -218 0 -118 135 -175 262 -110 54 27 159 143
315 348 l139 182 443 0 442 0 4 -232 c3 -193 6 -238 20 -263 64 -118 309 -51
403 109 46 78 47 121 38 1061 -8 863 -9 881 -30 926 -11 25 -33 55 -49 66 -59
42 -163 54 -255 29z m-99 -918 c-7 -238 -14 -434 -15 -436 -1 -1 -146 -1 -322
0 l-321 3 331 438 c181 240 332 435 335 432 3 -2 -1 -199 -8 -437z"/>
<path d="M12985 7926 c-103 -33 -185 -95 -242 -184 -36 -56 -736 -1808 -754
-1890 -16 -67 -5 -115 32 -146 105 -88 302 1 385 175 17 35 142 346 279 692
136 345 249 626 251 625 1 -2 76 -293 167 -648 91 -355 175 -675 187 -712 31
-92 68 -134 137 -154 143 -42 296 32 386 186 27 47 726 1804 746 1875 24 89 4
156 -54 181 -104 43 -243 -18 -323 -143 -17 -27 -148 -345 -292 -708 -144
-363 -265 -663 -269 -668 -4 -4 -49 151 -101 345 -51 194 -137 521 -192 727
-57 219 -106 385 -118 401 -38 54 -137 74 -225 46z"/>
<path d="M15869 7926 c-78 -22 -151 -68 -219 -136 -36 -36 -283 -342 -550
-680 -267 -338 -576 -729 -687 -870 -111 -140 -216 -279 -234 -308 -43 -71
-51 -146 -20 -196 42 -67 149 -83 241 -36 64 33 161 144 415 478 l39 52 442 0
442 0 4 -232 c3 -208 5 -236 22 -265 26 -43 59 -58 125 -58 110 1 245 92 292
198 l24 52 -3 900 c-2 550 -7 920 -13 952 -21 106 -81 154 -203 159 -39 2 -92
-3 -117 -10z m-98 -897 c-6 -174 -11 -348 -11 -387 l0 -72 -325 0 -326 0 333
442 333 441 3 -54 c2 -30 -1 -196 -7 -370z"/>
<path d="M22031 7924 c-420 -68 -818 -334 -1089 -727 -125 -182 -251 -474
-298 -692 -23 -111 -24 -308 0 -400 61 -238 204 -364 471 -416 103 -20 359
-18 465 5 259 54 491 176 688 362 156 146 261 306 270 409 4 44 0 55 -23 83
-37 44 -90 59 -159 43 -74 -17 -120 -53 -213 -168 -132 -162 -234 -253 -353
-313 -182 -92 -418 -105 -554 -32 -109 59 -152 148 -150 312 4 274 189 685
412 913 133 135 295 232 442 263 107 23 258 15 328 -16 91 -40 161 -142 178
-263 12 -81 36 -156 60 -177 50 -48 162 -36 247 26 94 69 142 169 140 299 -4
229 -168 410 -433 479 -93 24 -310 29 -429 10z"/>
<path d="M23662 7922 c-67 -24 -135 -82 -178 -152 -18 -30 -196 -464 -395
-965 -329 -830 -362 -916 -366 -982 -6 -72 -5 -73 29 -107 62 -62 170 -57 280
13 91 58 119 111 293 549 l159 402 474 0 c447 0 474 -1 469 -17 -2 -10 -72
-189 -155 -398 -85 -213 -154 -402 -157 -430 -9 -62 11 -115 51 -142 40 -26
144 -23 206 5 58 25 139 99 173 157 22 38 688 1707 736 1844 28 80 25 152 -6
190 -70 83 -242 57 -342 -52 -62 -67 -83 -110 -218 -452 -69 -176 -130 -323
-134 -328 -4 -4 -219 -6 -478 -5 l-470 3 133 335 c75 190 136 357 139 386 8
60 -11 114 -49 139 -39 26 -131 29 -194 7z"/>
<path d="M6663 7881 c-94 -32 -156 -89 -208 -191 -10 -19 -175 -431 -368 -915
-318 -803 -350 -886 -354 -952 -6 -72 -5 -73 29 -107 86 -86 271 -36 373 102
23 31 87 177 192 444 l158 398 364 0 c218 0 390 4 427 11 80 14 146 55 184
116 53 83 52 146 -3 187 -28 20 -42 21 -432 26 l-403 5 111 277 110 277 481 3
481 3 58 28 c66 33 118 93 137 161 16 57 4 94 -40 124 l-33 22 -606 0 c-557
-1 -610 -2 -658 -19z"/>
<path d="M8523 7886 c-79 -25 -154 -87 -201 -167 -12 -19 -182 -440 -378 -935
-310 -780 -357 -908 -362 -964 -4 -60 -2 -68 23 -98 71 -85 242 -57 350 59 57
61 76 103 246 532 l133 337 91 0 c191 0 274 -29 329 -113 49 -73 69 -141 126
-424 63 -309 76 -357 110 -393 75 -80 244 -54 352 54 63 63 72 98 65 261 -11
253 -94 499 -208 618 l-45 47 40 10 c311 78 517 212 653 422 92 142 138 291
131 423 -9 166 -96 269 -273 323 -70 22 -1117 29 -1182 8z m760 -326 c49 -6
106 -19 126 -30 93 -47 111 -163 45 -297 -41 -85 -105 -148 -197 -193 -121
-59 -218 -71 -538 -68 l-256 3 112 283 c62 155 116 289 119 297 4 13 44 15
253 15 136 0 288 -5 336 -10z"/>
<path d="M17199 7884 c-125 -38 -229 -213 -173 -292 36 -52 59 -56 352 -60
149 -2 272 -8 272 -12 0 -4 -145 -372 -321 -816 -290 -729 -322 -816 -326
-879 -5 -66 -3 -73 22 -103 63 -75 207 -63 317 28 20 16 52 54 72 84 23 34
153 349 360 872 l324 819 284 6 c337 7 363 13 445 103 95 103 98 214 7 252
-50 21 -1567 19 -1635 -2z"/>
<path d="M19343 7881 c-29 -11 -66 -29 -83 -41 -38 -27 -92 -94 -117 -145 -11
-22 -175 -429 -364 -905 -293 -739 -343 -874 -347 -927 -5 -72 9 -102 61 -130
30 -17 83 -18 696 -21 456 -2 681 1 718 8 112 24 202 119 211 223 5 67 -18
100 -82 116 -30 7 -214 11 -570 11 -289 0 -526 1 -526 3 0 1 54 137 119 302
l119 300 498 5 c498 5 499 5 551 29 126 56 198 216 127 282 l-26 24 -504 3
c-277 1 -504 6 -504 10 0 4 47 124 104 267 l104 260 549 5 548 5 55 31 c123
70 175 208 104 275 l-26 24 -681 2 c-647 2 -685 2 -734 -16z"/>
</g>
</svg>
